<?xml version="1.0" encoding="utf-8"?>
<!-- Generator: Adobe Illustrator 22.0.1, SVG Export Plug-In . SVG Version: 6.00 Build 0)  -->
<svg version="1.1" id="Layer_1" xmlns="http://www.w3.org/2000/svg" xmlns:xlink="http://www.w3.org/1999/xlink" x="0px" y="0px"
	 viewBox="0 0 1000 1000" style="enable-background:new 0 0 1000 1000;" xml:space="preserve">
<style type="text/css">
	.st0{fill:#2078D1;}
	.st1{fill:#FFFFFF;}
	.st2{fill:#87C43E;}
	.st3{fill:#6FA03C;}
</style>
<g>
	<rect x="226.4" y="163" class="st0" width="546.4" height="546.3"/>
	<rect x="284.3" y="215.7" class="st1" width="311.7" height="22.1"/>
	<polygon class="st2" points="532.8,709.3 532.8,837 772.8,709.3 	"/>
	<polygon class="st3" points="532.8,709.3 772.8,709.3 532.8,742.5 	"/>
	<rect x="284.3" y="284.7" class="st1" width="233.2" height="22.1"/>
	<rect x="284.3" y="353.6" class="st1" width="260.6" height="22.1"/>
	<rect x="284.3" y="422.5" class="st1" width="152.1" height="22.1"/>
	<g>
		<g>
			<path class="st1" d="M637.9,504.6v-40h-38.7v-42.1h-46.7v42.1h-19.7v40h19.7v78.1c0,9.6,1.2,17.5,3.5,23.8
				c2.4,6.3,5.7,11.4,9.8,15.2c4.2,3.9,9.2,6.6,15.1,8.2c5.9,1.5,12.3,2.3,19.5,2.3c7.7,0,14.6-0.9,20.6-2.6
				c5.9-1.7,11.4-4,16.3-6.9v-37.6c-7.2,4.1-14.9,6.2-23.1,6.2c-10,0-15-5.3-15-16v-70.7H637.9z"/>
		</g>
	</g>
</g>
</svg>
