<?xml version="1.0" encoding="utf-8"?>
<!-- Generator: Adobe Illustrator 22.0.1, SVG Export Plug-In . SVG Version: 6.00 Build 0)  -->
<svg version="1.1" id="Layer_1" xmlns="http://www.w3.org/2000/svg" xmlns:xlink="http://www.w3.org/1999/xlink" x="0px" y="0px"
	 viewBox="0 0 809.6 1000" style="enable-background:new 0 0 809.6 1000;" xml:space="preserve">
<g>
	<path d="M-1,0v810.5h810.7V0H-1z M85,78.3h462.5v32.8H85V78.3z M85,180.6h346v32.8H85V180.6z M85,282.8h386.6v32.8H85V282.8z
		 M310.7,418H85v-32.8h225.7V418z M609.6,506.8h-57.4v104.9c0,15.9,7.4,23.7,22.3,23.7c12.2,0,23.6-3,34.3-9.2v55.6
		c-7.3,4.3-15.4,7.7-24.2,10.2c-8.9,2.5-19.1,3.9-30.6,3.9c-10.7,0-20.3-1.2-28.9-3.4c-8.8-2.2-16.2-6.2-22.4-12.2
		c-6.1-5.6-11-13.4-14.5-22.6c-3.4-9.3-5.2-21.1-5.2-35.3V506.7h-29.2v-59.3h29.2v-62.5h69.3v62.5h57.4L609.6,506.8L609.6,506.8z"/>
	<polygon points="453.7,810.5 453.7,1000 809.8,810.5 	"/>
	<polygon points="453.7,810.5 809.8,810.5 453.7,859.8 	"/>
</g>
</svg>
