<?xml version="1.0" encoding="utf-8"?>
<!-- Generator: Adobe Illustrator 22.0.1, SVG Export Plug-In . SVG Version: 6.00 Build 0)  -->
<svg version="1.1" id="Layer_1" xmlns="http://www.w3.org/2000/svg" xmlns:xlink="http://www.w3.org/1999/xlink" x="0px" y="0px"
	 viewBox="0 0 1000 1000" style="enable-background:new 0 0 1000 1000;" xml:space="preserve">
<g>
	<path d="M226.3,163v546.3h546.4V163H226.3z M284.3,215.8H596v22.1H284.3V215.8z M284.3,284.7h233.2v22.1H284.3V284.7z M284.3,353.6
		h260.6v22.1H284.3V353.6z M436.4,444.7H284.3v-22.1h152.1V444.7z M637.9,504.6h-38.7v70.7c0,10.7,5,16,15,16c8.2,0,15.9-2,23.1-6.2
		v37.5c-4.9,2.9-10.4,5.2-16.3,6.9c-6,1.7-12.9,2.6-20.6,2.6c-7.2,0-13.7-0.8-19.5-2.3c-5.9-1.5-10.9-4.2-15.1-8.2
		c-4.1-3.8-7.4-9-9.8-15.2c-2.3-6.3-3.5-14.2-3.5-23.8v-78.1h-19.7v-40h19.7v-42.1h46.7v42.1h38.7V504.6z"/>
	<polygon points="532.8,709.3 532.8,837 772.8,709.3 	"/>
	<polygon points="532.8,709.3 772.8,709.3 532.8,742.5 	"/>
</g>
</svg>
