<?xml version="1.0" encoding="utf-8"?>
<!-- Generator: Adobe Illustrator 22.0.1, SVG Export Plug-In . SVG Version: 6.00 Build 0)  -->
<svg version="1.1" id="Layer_1" xmlns="http://www.w3.org/2000/svg" xmlns:xlink="http://www.w3.org/1999/xlink" x="0px" y="0px"
	 viewBox="0 0 1000 300" style="enable-background:new 0 0 1000 300;" xml:space="preserve">
<style type="text/css">
	.st0{fill:#2078D1;}
	.st1{fill:#FFFFFF;}
	.st2{fill:#87C43E;}
	.st3{fill:#6FA03C;}
</style>
<g>
	<g>
		<g>
			<path class="st0" d="M259.7,123.1h-25v-16.7h68.1v16.7h-25v65.5h-18.1V123.1z"/>
			<path class="st0" d="M314.8,125.6h17.9v12.7c1.8-4.3,4.3-7.8,7.4-10.3c3.1-2.6,7.4-3.8,12.7-3.5v18.7h-0.9c-6,0-10.6,1.8-14,5.4
				c-3.4,3.6-5.1,9.2-5.1,16.8v23.3h-17.9V125.6z"/>
			<path class="st0" d="M381.7,189.8c-3,0-5.8-0.4-8.4-1.2c-2.6-0.8-4.9-2.1-6.9-3.7c-2-1.6-3.5-3.7-4.6-6c-1.1-2.4-1.7-5.1-1.7-8.3
				v-0.2c0-3.4,0.6-6.4,1.9-8.9c1.3-2.5,3-4.6,5.2-6.2c2.2-1.6,4.9-2.9,8-3.7c3.1-0.8,6.5-1.2,10.3-1.2c3.2,0,6,0.2,8.4,0.7
				c2.4,0.5,4.7,1.1,7,1.9v-1.1c0-3.8-1.1-6.6-3.4-8.6c-2.3-2-5.6-2.9-10.1-2.9c-3.4,0-6.5,0.3-9.1,0.9c-2.6,0.6-5.4,1.4-8.3,2.5
				l-4.5-13.6c3.4-1.5,7-2.7,10.8-3.6c3.8-0.9,8.3-1.4,13.6-1.4c4.9,0,9.1,0.6,12.6,1.8c3.5,1.2,6.4,3,8.6,5.2
				c2.3,2.3,4.1,5.2,5.2,8.6c1.1,3.4,1.6,7.2,1.6,11.5v36.5h-17.3v-6.8c-2.2,2.4-4.8,4.4-7.9,5.8C389.8,189,386.1,189.8,381.7,189.8
				z M387.1,177.4c4.2,0,7.6-1,10.2-3.1c2.5-2,3.8-4.7,3.8-8v-3.2c-1.6-0.7-3.3-1.3-5.2-1.7c-1.9-0.4-4-0.6-6.2-0.6
				c-3.8,0-6.9,0.7-9,2.2c-2.2,1.5-3.3,3.6-3.3,6.5v0.2c0,2.4,0.9,4.3,2.7,5.6C381.9,176.8,384.2,177.4,387.1,177.4z"/>
			<path class="st0" d="M433.4,125.6h17.9v9c1-1.3,2.1-2.6,3.3-3.8c1.2-1.2,2.6-2.3,4.1-3.3c1.5-0.9,3.1-1.7,4.9-2.2
				c1.8-0.6,3.8-0.8,6.1-0.8c6.8,0,12.1,2.1,15.8,6.2c3.7,4.2,5.6,9.9,5.6,17.1v40.8h-17.9v-35c0-4.2-0.9-7.4-2.8-9.5
				c-1.9-2.1-4.5-3.2-8-3.2c-3.4,0-6.2,1.1-8.2,3.2c-2,2.1-3,5.3-3,9.5v35h-17.9V125.6z"/>
			<path class="st0" d="M528.6,189.8c-4.5,0-9-0.8-13.7-2.3c-4.7-1.5-9.1-3.9-13.3-7.2l7.6-11.7c3.4,2.5,6.9,4.4,10.3,5.6
				c3.4,1.3,6.6,1.9,9.6,1.9c2.6,0,4.5-0.4,5.7-1.3c1.2-0.9,1.8-2,1.8-3.4v-0.2c0-0.9-0.4-1.8-1.1-2.5c-0.7-0.7-1.7-1.3-2.9-1.8
				c-1.2-0.5-2.6-1-4.2-1.5c-1.6-0.5-3.2-1-4.9-1.5c-2.2-0.6-4.4-1.4-6.6-2.3c-2.2-0.9-4.2-2.1-6-3.5c-1.8-1.4-3.3-3.2-4.4-5.3
				c-1.1-2.1-1.7-4.7-1.7-7.8v-0.2c0-3.2,0.6-6,1.8-8.5c1.2-2.5,2.9-4.6,4.9-6.3c2.1-1.7,4.5-3,7.3-3.9c2.8-0.9,5.8-1.3,9-1.3
				c4,0,8,0.6,12.2,1.9s7.9,3.1,11.3,5.3l-6.8,12.3c-3.1-1.8-6.2-3.2-9.2-4.3c-3-1.1-5.6-1.6-7.9-1.6c-2.2,0-3.8,0.4-4.9,1.2
				c-1.1,0.8-1.6,1.9-1.6,3.1v0.2c0,0.9,0.4,1.6,1.1,2.3c0.7,0.7,1.6,1.3,2.8,1.9c1.2,0.6,2.5,1.2,4.1,1.7c1.5,0.5,3.2,1.1,4.9,1.6
				c2.2,0.7,4.4,1.5,6.7,2.5c2.3,1,4.3,2.2,6.1,3.6c1.8,1.4,3.3,3.1,4.5,5.2c1.2,2,1.8,4.5,1.8,7.4v0.2c0,3.5-0.6,6.6-1.8,9.1
				c-1.2,2.5-2.9,4.6-5.1,6.3c-2.2,1.6-4.8,2.9-7.7,3.7C535.1,189.4,532,189.8,528.6,189.8z"/>
			<path class="st0" d="M566.3,102.9h17.9v85.7h-17.9V102.9z"/>
			<path class="st0" d="M630.8,190c-4.7,0-9.1-0.8-13.1-2.3c-4-1.6-7.5-3.8-10.5-6.7c-2.9-2.9-5.2-6.3-6.9-10.3
				c-1.6-4-2.5-8.4-2.5-13.2v-0.2c0-4.5,0.8-8.7,2.3-12.7c1.5-4,3.7-7.5,6.4-10.5c2.7-3,6-5.3,9.8-7c3.8-1.7,8-2.6,12.6-2.6
				c5.2,0,9.8,0.9,13.6,2.8c3.8,1.9,7,4.4,9.6,7.6c2.5,3.2,4.4,6.8,5.6,10.9c1.2,4.1,1.8,8.4,1.8,12.9c0,0.7,0,1.4-0.1,2.2
				c0,0.8-0.1,1.6-0.2,2.5h-43.8c0.9,4.1,2.6,7.1,5.3,9.2c2.7,2.1,6,3.1,10,3.1c3,0,5.6-0.5,8-1.5c2.3-1,4.8-2.7,7.3-4.9l10.2,9
				c-3,3.7-6.6,6.6-10.8,8.6C641.5,189,636.5,190,630.8,190z M642.3,152.2c-0.5-4-2-7.2-4.2-9.7c-2.3-2.5-5.3-3.7-9-3.7
				c-3.8,0-6.8,1.2-9.1,3.6c-2.3,2.4-3.8,5.7-4.5,9.7H642.3z"/>
			<path class="st0" d="M702.7,190c-4.7,0-9.1-0.9-13.1-2.6c-4-1.7-7.5-4.1-10.4-7c-2.9-2.9-5.2-6.4-6.8-10.3
				c-1.6-4-2.5-8.2-2.5-12.6v-0.2c0-4.5,0.8-8.7,2.5-12.7c1.6-4,3.9-7.5,6.8-10.5c2.9-3,6.4-5.3,10.4-7c4-1.7,8.5-2.6,13.3-2.6
				c5.9,0,10.9,0.9,14.8,2.8c3.9,1.9,7.4,4.5,10.3,7.8l-10.9,11.7c-2-2.1-4.1-3.8-6.3-5.1c-2.2-1.3-4.8-1.9-8-1.9
				c-2.3,0-4.3,0.5-6.2,1.4c-1.8,0.9-3.4,2.1-4.8,3.7c-1.4,1.6-2.4,3.4-3.2,5.5c-0.7,2.1-1.1,4.3-1.1,6.6v0.2c0,2.4,0.4,4.7,1.1,6.8
				c0.7,2.1,1.8,4,3.2,5.5c1.4,1.6,3.1,2.8,5,3.7c2,0.9,4.1,1.4,6.6,1.4c3,0,5.6-0.6,7.8-1.8c2.2-1.2,4.4-2.8,6.6-4.9l10.5,10.6
				c-3.1,3.4-6.5,6.1-10.5,8.3C714,188.9,708.9,190,702.7,190z"/>
			<path class="st0" d="M761.3,189.7c-2.7,0-5.2-0.3-7.5-0.9c-2.2-0.6-4.2-1.6-5.8-3.1c-1.6-1.5-2.9-3.4-3.8-5.8
				c-0.9-2.4-1.4-5.4-1.4-9.1v-29.8h-7.5v-15.3h7.5v-16.1h17.9v16.1h14.8v15.3h-14.8v27c0,4.1,1.9,6.1,5.8,6.1
				c3.1,0,6.1-0.8,8.8-2.3V186c-1.9,1.1-4,2-6.2,2.6C766.9,189.3,764.3,189.7,761.3,189.7z"/>
			<path class="st0" d="M788.8,125.6h17.9v12.7c1.8-4.3,4.3-7.8,7.4-10.3c3.1-2.6,7.4-3.8,12.7-3.5v18.7h-0.9c-6,0-10.6,1.8-14,5.4
				c-3.4,3.6-5.1,9.2-5.1,16.8v23.3h-17.9V125.6z"/>
			<g>
				<g>
					<path class="st0" d="M855.7,189.8c-3,0-5.8-0.4-8.4-1.2c-2.6-0.8-4.9-2.1-6.9-3.7c-2-1.6-3.5-3.7-4.6-6
						c-1.1-2.4-1.7-5.1-1.7-8.3v-0.2c0-3.4,0.6-6.4,1.9-8.9c1.3-2.5,3-4.6,5.2-6.2c2.2-1.6,4.9-2.9,8-3.7c3.1-0.8,6.5-1.2,10.3-1.2
						c3.2,0,6,0.2,8.4,0.7c2.4,0.5,4.7,1.1,7,1.9v-1.1c0-3.8-1.1-6.6-3.4-8.6c-2.3-2-5.6-2.9-10.1-2.9c-3.4,0-6.5,0.3-9.1,0.9
						c-2.6,0.6-5.4,1.4-8.3,2.5l-4.5-13.6c3.4-1.5,7-2.7,10.8-3.6c3.8-0.9,8.3-1.4,13.6-1.4c4.9,0,9.1,0.6,12.6,1.8
						c3.5,1.2,6.4,3,8.6,5.2c2.3,2.3,4.1,5.2,5.2,8.6c1.1,3.4,1.6,7.2,1.6,11.5v36.5h-17.3v-6.8c-2.2,2.4-4.8,4.4-7.9,5.8
						C863.8,189,860.1,189.8,855.7,189.8z M861.1,177.4c4.2,0,7.6-1,10.2-3.1c2.5-2,3.8-4.7,3.8-8v-3.2c-1.6-0.7-3.3-1.3-5.2-1.7
						c-1.9-0.4-4-0.6-6.2-0.6c-3.8,0-6.9,0.7-9,2.2c-2.2,1.5-3.3,3.6-3.3,6.5v0.2c0,2.4,0.9,4.3,2.7,5.6
						C855.9,176.8,858.2,177.4,861.1,177.4z"/>
				</g>
			</g>
		</g>
	</g>
	<g>
		<rect x="108" y="95.1" class="st0" width="97.1" height="97.1"/>
		<rect x="118.3" y="104.5" class="st1" width="55.4" height="3.9"/>
		<polygon class="st2" points="162.5,192.2 162.5,214.9 205.1,192.2 		"/>
		<polygon class="st3" points="162.5,192.2 205.1,192.2 162.5,198.1 		"/>
		<rect x="118.3" y="116.7" class="st1" width="41.5" height="3.9"/>
		<rect x="118.3" y="129" class="st1" width="46.3" height="3.9"/>
		<rect x="118.3" y="141.2" class="st1" width="27" height="3.9"/>
		<g>
			<g>
				<path class="st1" d="M181.2,155.8v-7.1h-6.9v-7.5H166v7.5h-3.5v7.1h3.5v13.9c0,1.7,0.2,3.1,0.6,4.2c0.4,1.1,1,2,1.7,2.7
					c0.8,0.7,1.6,1.2,2.7,1.5c1,0.3,2.2,0.4,3.5,0.4c1.4,0,2.6-0.2,3.7-0.5c1-0.3,2-0.7,2.9-1.2v-6.7c-1.3,0.7-2.7,1.1-4.1,1.1
					c-1.8,0-2.7-0.9-2.7-2.8v-12.6H181.2z"/>
			</g>
		</g>
	</g>
</g>
</svg>
