<?xml version="1.0" encoding="utf-8"?>
<!-- Generator: Adobe Illustrator 22.0.1, SVG Export Plug-In . SVG Version: 6.00 Build 0)  -->
<svg version="1.1" id="Layer_1" xmlns="http://www.w3.org/2000/svg" xmlns:xlink="http://www.w3.org/1999/xlink" x="0px" y="0px"
	 viewBox="0 0 1000 153.2" style="enable-background:new 0 0 1000 153.2;" xml:space="preserve">
<g>
	<g>
		<g>
			<path d="M193.4,36h-31.9V14.7h86.9V36h-31.9v83.6h-23.1V36z"/>
			<path d="M263.7,39.2h22.8v16.2c2.3-5.5,5.5-10,9.4-13.1c4-3.3,9.4-4.8,16.2-4.5v23.9h-1.1c-7.7,0-13.5,2.3-17.9,6.9
				c-4.3,4.6-6.5,11.7-6.5,21.4v29.7h-22.8V39.2H263.7z"/>
			<path d="M349.1,121.1c-3.8,0-7.4-0.5-10.7-1.5c-3.3-1-6.3-2.7-8.8-4.7c-2.6-2-4.5-4.7-5.9-7.7c-1.4-3.1-2.2-6.5-2.2-10.6v-0.3
				c0-4.3,0.8-8.2,2.4-11.4c1.7-3.2,3.8-5.9,6.6-7.9c2.8-2,6.3-3.7,10.2-4.7c4-1,8.3-1.5,13.1-1.5c4.1,0,7.7,0.3,10.7,0.9
				s6,1.4,8.9,2.4v-1.4c0-4.8-1.4-8.4-4.3-11c-2.9-2.6-7.1-3.7-12.9-3.7c-4.3,0-8.3,0.4-11.6,1.1c-3.3,0.8-6.9,1.8-10.6,3.2
				L328.4,45c4.3-1.9,8.9-3.4,13.8-4.6c4.8-1.1,10.6-1.8,17.4-1.8c6.3,0,11.6,0.8,16.1,2.3c4.5,1.5,8.2,3.8,11,6.6
				c2.9,2.9,5.2,6.6,6.6,11c1.4,4.3,2,9.2,2,14.7v46.6h-22.1v-8.7c-2.8,3.1-6.1,5.6-10.1,7.4C359.4,120.1,354.7,121.1,349.1,121.1z
				 M356,105.3c5.4,0,9.7-1.3,13-4c3.2-2.6,4.8-6,4.8-10.2V87c-2-0.9-4.2-1.7-6.6-2.2c-2.4-0.5-5.1-0.8-7.9-0.8
				c-4.8,0-8.8,0.9-11.5,2.8c-2.8,1.9-4.2,4.6-4.2,8.3v0.3c0,3.1,1.1,5.5,3.4,7.1C349.3,104.5,352.3,105.3,356,105.3z"/>
			<path d="M415,39.2h22.8v11.5c1.3-1.7,2.7-3.3,4.2-4.8c1.5-1.5,3.3-2.9,5.2-4.2c1.9-1.1,4-2.2,6.3-2.8c2.3-0.8,4.8-1,7.8-1
				c8.7,0,15.4,2.7,20.2,7.9c4.7,5.4,7.1,12.6,7.1,21.8v52.1h-22.8V74.9c0-5.4-1.1-9.4-3.6-12.1c-2.4-2.7-5.7-4.1-10.2-4.1
				c-4.3,0-7.9,1.4-10.5,4.1c-2.6,2.7-3.8,6.8-3.8,12.1v44.7h-22.8V39.2H415z"/>
			<path d="M536.5,121.1c-5.7,0-11.5-1-17.5-2.9c-6-1.9-11.6-5-17-9.2l9.7-14.9c4.3,3.2,8.8,5.6,13.1,7.1c4.3,1.7,8.4,2.4,12.2,2.4
				c3.3,0,5.7-0.5,7.3-1.7c1.5-1.1,2.3-2.6,2.3-4.3v-0.3c0-1.1-0.5-2.3-1.4-3.2c-0.9-0.9-2.2-1.7-3.7-2.3c-1.5-0.6-3.3-1.3-5.4-1.9
				c-2-0.6-4.1-1.3-6.3-1.9c-2.8-0.8-5.6-1.8-8.4-2.9c-2.8-1.1-5.4-2.7-7.7-4.5c-2.3-1.8-4.2-4.1-5.6-6.8c-1.4-2.7-2.2-6-2.2-10
				v-0.3c0-4.1,0.8-7.7,2.3-10.8c1.5-3.2,3.7-5.9,6.3-8c2.7-2.2,5.7-3.8,9.3-5c3.6-1.1,7.4-1.7,11.5-1.7c5.1,0,10.2,0.8,15.6,2.4
				c5.4,1.7,10.1,4,14.4,6.8L556.8,63c-4-2.3-7.9-4.1-11.7-5.5c-3.8-1.4-7.1-2-10.1-2c-2.8,0-4.8,0.5-6.3,1.5c-1.4,1-2,2.4-2,4v0.3
				c0,1.1,0.5,2,1.4,2.9c0.9,0.9,2,1.7,3.6,2.4c1.5,0.8,3.2,1.5,5.2,2.2c1.9,0.6,4.1,1.4,6.3,2c2.8,0.9,5.6,1.9,8.5,3.2
				c2.9,1.3,5.5,2.8,7.8,4.6c2.3,1.8,4.2,4,5.7,6.6c1.5,2.6,2.3,5.7,2.3,9.4v0.3c0,4.5-0.8,8.4-2.3,11.6c-1.5,3.2-3.7,5.9-6.5,8
				c-2.8,2-6.1,3.7-9.8,4.7C544.8,120.6,540.8,121.1,536.5,121.1z"/>
			<path d="M584.6,10.2h22.8v109.3h-22.8V10.2z"/>
			<path d="M666.9,121.3c-6,0-11.6-1-16.7-2.9c-5.1-2-9.6-4.8-13.4-8.5c-3.7-3.7-6.6-8-8.8-13.1c-2-5.1-3.2-10.7-3.2-16.8v-0.3
				c0-5.7,1-11.1,2.9-16.2c1.9-5.1,4.7-9.6,8.2-13.4c3.4-3.8,7.7-6.8,12.5-8.9s10.2-3.3,16.1-3.3c6.6,0,12.5,1.1,17.4,3.6
				s8.9,5.6,12.2,9.7c3.2,4.1,5.6,8.7,7.1,13.9c1.5,5.2,2.3,10.7,2.3,16.5c0,0.9,0,1.8-0.1,2.8c0,1-0.1,2-0.3,3.2h-55.9
				c1.1,5.2,3.3,9.1,6.8,11.7c3.4,2.7,7.7,4,12.8,4c3.8,0,7.1-0.6,10.2-1.9c2.9-1.3,6.1-3.4,9.3-6.3l13,11.5
				c-3.8,4.7-8.4,8.4-13.8,11C680.5,120.1,674.2,121.3,666.9,121.3z M681.6,73.1c-0.6-5.1-2.6-9.2-5.4-12.4
				c-2.9-3.2-6.8-4.7-11.5-4.7c-4.8,0-8.7,1.5-11.6,4.6c-2.9,3.1-4.8,7.3-5.7,12.4h34.2V73.1z"/>
			<path d="M758.6,121.3c-6,0-11.6-1.1-16.7-3.3c-5.1-2.2-9.6-5.2-13.3-8.9c-3.7-3.7-6.6-8.2-8.7-13.1c-2-5.1-3.2-10.5-3.2-16.1
				v-0.3c0-5.7,1-11.1,3.2-16.2c2-5.1,5-9.6,8.7-13.4c3.7-3.8,8.2-6.8,13.3-8.9s10.8-3.3,17-3.3c7.5,0,13.9,1.1,18.9,3.6
				c5,2.4,9.4,5.7,13.1,10L777,66.2c-2.6-2.7-5.2-4.8-8-6.5c-2.8-1.7-6.1-2.4-10.2-2.4c-2.9,0-5.5,0.6-7.9,1.8
				c-2.3,1.1-4.3,2.7-6.1,4.7c-1.8,2-3.1,4.3-4.1,7c-0.9,2.7-1.4,5.5-1.4,8.4v0.3c0,3.1,0.5,6,1.4,8.7c0.9,2.7,2.3,5.1,4.1,7
				c1.8,2,4,3.6,6.4,4.7c2.6,1.1,5.2,1.8,8.4,1.8c3.8,0,7.1-0.8,10-2.3c2.8-1.5,5.6-3.6,8.4-6.3l13.4,13.5c-4,4.3-8.3,7.8-13.4,10.6
				C773,119.9,766.5,121.3,758.6,121.3z"/>
			<path d="M833.4,120.9c-3.4,0-6.6-0.4-9.6-1.1c-2.8-0.8-5.4-2-7.4-4c-2-1.9-3.7-4.3-4.8-7.4c-1.1-3.1-1.8-6.9-1.8-11.6v-38h-9.6
				V39.3h9.6V18.8h22.8v20.5h18.9v19.5h-18.9v34.4c0,5.2,2.4,7.8,7.4,7.8c4,0,7.8-1,11.2-2.9v18.1c-2.4,1.4-5.1,2.6-7.9,3.3
				C840.5,120.4,837.2,120.9,833.4,120.9z"/>
			<path d="M868.5,39.2h22.8v16.2c2.3-5.5,5.5-10,9.4-13.1c4-3.3,9.4-4.8,16.2-4.5v23.9h-1.1c-7.7,0-13.5,2.3-17.9,6.9
				c-4.3,4.6-6.5,11.7-6.5,21.4v29.7h-22.8V39.2H868.5z"/>
			<g>
				<g>
					<path d="M953.8,121.1c-3.8,0-7.4-0.5-10.7-1.5c-3.3-1-6.3-2.7-8.8-4.7c-2.6-2-4.5-4.7-5.9-7.7c-1.4-3.1-2.2-6.5-2.2-10.6v-0.3
						c0-4.3,0.8-8.2,2.4-11.4c1.7-3.2,3.8-5.9,6.6-7.9c2.8-2,6.3-3.7,10.2-4.7c4-1,8.3-1.5,13.1-1.5c4.1,0,7.7,0.3,10.7,0.9
						s6,1.4,8.9,2.4v-1.4c0-4.8-1.4-8.4-4.3-11c-2.9-2.6-7.1-3.7-12.9-3.7c-4.3,0-8.3,0.4-11.6,1.1c-3.3,0.8-6.9,1.8-10.6,3.2
						L933.1,45c4.3-1.9,8.9-3.4,13.8-4.6c4.8-1.1,10.6-1.8,17.4-1.8c6.3,0,11.6,0.8,16.1,2.3c4.5,1.5,8.2,3.8,11,6.6
						c2.9,2.9,5.2,6.6,6.6,11c1.4,4.3,2,9.2,2,14.7v46.6h-22.1v-8.7c-2.8,3.1-6.1,5.6-10.1,7.4C964.2,120.1,959.4,121.1,953.8,121.1
						z M960.7,105.3c5.4,0,9.7-1.3,13-4c3.2-2.6,4.8-6,4.8-10.2V87c-2-0.9-4.2-1.7-6.6-2.2c-2.4-0.5-5.1-0.8-7.9-0.8
						c-4.8,0-8.8,0.9-11.5,2.8c-2.8,1.9-4.2,4.6-4.2,8.3v0.3c0,3.1,1.1,5.5,3.4,7.1C954.1,104.5,957,105.3,960.7,105.3z"/>
				</g>
			</g>
		</g>
	</g>
	<g>
		<path d="M-0.1,0.3v123.9h123.9V0.3H-0.1z M13,12.2h70.7v5H13C13,17.2,13,12.2,13,12.2z M13,27.8H66v5H13V27.8z M13,43.5h59.1v5H13
			V43.5z M47.5,64.2H13v-5h34.4V64.2z M93.3,77.7h-8.8v16.1c0,2.4,1.1,3.6,3.4,3.6c1.9,0,3.6-0.5,5.2-1.4v8.5
			c-1.1,0.6-2.3,1.1-3.7,1.5c-1.4,0.4-2.9,0.6-4.7,0.6c-1.7,0-3.1-0.1-4.5-0.5c-1.3-0.4-2.4-1-3.4-1.8c-0.9-0.9-1.7-2-2.3-3.4
			c-0.5-1.4-0.8-3.2-0.8-5.4V77.8h-4.5v-9.1h4.5v-9.6h10.6v9.6h8.8v8.9H93.3z"/>
		<polygon points="69.4,124.1 69.4,153.1 123.8,124.1 		"/>
		<polygon points="69.4,124.1 123.8,124.1 69.4,131.7 		"/>
	</g>
</g>
</svg>
