<?xml version="1.0" encoding="utf-8"?>
<!-- Generator: Adobe Illustrator 22.0.1, SVG Export Plug-In . SVG Version: 6.00 Build 0)  -->
<svg version="1.1" id="Layer_1" xmlns="http://www.w3.org/2000/svg" xmlns:xlink="http://www.w3.org/1999/xlink" x="0px" y="0px"
	 viewBox="0 0 1000 153.2" style="enable-background:new 0 0 1000 153.2;" xml:space="preserve">
<style type="text/css">
	.st0{fill:#2078D1;}
	.st1{fill:#FFFFFF;}
	.st2{fill:#87C43E;}
	.st3{fill:#6FA03C;}
</style>
<g>
	<g>
		<g>
			<path class="st0" d="M32,35.8H0V14.4h87v21.3h-32v83.7H32L32,35.8L32,35.8z"/>
			<path class="st0" d="M102.4,39h22.9v16.2c2.3-5.5,5.5-10,9.5-13.2c4-3.3,9.5-4.9,16.2-4.5v23.9h-1.2c-7.7,0-13.5,2.3-17.9,6.9
				c-4.3,4.6-6.5,11.8-6.5,21.5v29.8h-22.9V39H102.4z"/>
			<path class="st0" d="M187.9,121c-3.8,0-7.4-0.5-10.7-1.5c-3.3-1-6.3-2.7-8.8-4.7c-2.6-2-4.5-4.7-5.9-7.7
				c-1.4-3.1-2.2-6.5-2.2-10.6v-0.3c0-4.3,0.8-8.2,2.4-11.4c1.7-3.2,3.8-5.9,6.6-7.9c2.8-2,6.3-3.7,10.2-4.7c4-1,8.3-1.5,13.2-1.5
				c4.1,0,7.7,0.3,10.7,0.9s6,1.4,8.9,2.4v-1.4c0-4.9-1.4-8.4-4.3-11c-2.9-2.6-7.2-3.7-12.9-3.7c-4.3,0-8.3,0.4-11.6,1.2
				c-3.3,0.8-6.9,1.8-10.6,3.2l-5.8-17.4c4.3-1.9,8.9-3.5,13.8-4.6c4.9-1.2,10.6-1.8,17.4-1.8c6.3,0,11.6,0.8,16.1,2.3
				c4.5,1.5,8.2,3.8,11,6.6c2.9,2.9,5.2,6.6,6.6,11c1.4,4.3,2,9.2,2,14.7v46.7H212v-8.7c-2.8,3.1-6.1,5.6-10.1,7.4
				C198.2,120,193.5,121,187.9,121z M194.8,105.2c5.4,0,9.7-1.3,13-4c3.2-2.6,4.9-6,4.9-10.2v-4.1c-2-0.9-4.2-1.7-6.6-2.2
				c-2.4-0.5-5.1-0.8-7.9-0.8c-4.9,0-8.8,0.9-11.5,2.8c-2.8,1.9-4.2,4.6-4.2,8.3v0.3c0,3.1,1.2,5.5,3.5,7.2
				C188.1,104.4,191.1,105.2,194.8,105.2z"/>
			<path class="st0" d="M254,39h22.9v11.5c1.3-1.7,2.7-3.3,4.2-4.9c1.5-1.5,3.3-2.9,5.2-4.2c1.9-1.2,4-2.2,6.3-2.8
				c2.3-0.8,4.9-1,7.8-1c8.7,0,15.5,2.7,20.2,7.9c4.7,5.4,7.2,12.7,7.2,21.9v52.1h-22.9V74.8c0-5.4-1.2-9.5-3.6-12.1
				c-2.4-2.7-5.8-4.1-10.2-4.1c-4.3,0-7.9,1.4-10.5,4.1c-2.6,2.7-3.8,6.8-3.8,12.1v44.7h-22.9V39H254z"/>
			<path class="st0" d="M375.6,121c-5.8,0-11.5-1-17.5-2.9c-6-1.9-11.6-5-17-9.2l9.7-15c4.3,3.2,8.8,5.6,13.2,7.2
				c4.3,1.7,8.4,2.4,12.3,2.4c3.3,0,5.8-0.5,7.3-1.7c1.5-1.2,2.3-2.6,2.3-4.3v-0.3c0-1.2-0.5-2.3-1.4-3.2c-0.9-0.9-2.2-1.7-3.7-2.3
				c-1.5-0.6-3.3-1.3-5.4-1.9c-2-0.6-4.1-1.3-6.3-1.9c-2.8-0.8-5.6-1.8-8.4-2.9c-2.8-1.2-5.4-2.7-7.7-4.5c-2.3-1.8-4.2-4.1-5.6-6.8
				c-1.4-2.7-2.2-6-2.2-10v-0.3c0-4.1,0.8-7.7,2.3-10.9c1.5-3.2,3.7-5.9,6.3-8.1c2.7-2.2,5.8-3.8,9.3-5c3.6-1.2,7.4-1.7,11.5-1.7
				c5.1,0,10.2,0.8,15.6,2.4c5.4,1.7,10.1,4,14.4,6.8L396,62.9c-4-2.3-7.9-4.1-11.8-5.5c-3.8-1.4-7.2-2-10.1-2
				c-2.8,0-4.9,0.5-6.3,1.5s-2,2.4-2,4v0.3c0,1.2,0.5,2,1.4,2.9c0.9,0.9,2,1.7,3.6,2.4c1.5,0.8,3.2,1.5,5.2,2.2
				c1.9,0.6,4.1,1.4,6.3,2c2.8,0.9,5.6,1.9,8.6,3.2c2.9,1.3,5.5,2.8,7.8,4.6c2.3,1.8,4.2,4,5.8,6.6c1.5,2.6,2.3,5.8,2.3,9.5v0.3
				c0,4.5-0.8,8.4-2.3,11.6c-1.5,3.2-3.7,5.9-6.5,8.1c-2.8,2-6.1,3.7-9.8,4.7S380,121,375.6,121z"/>
			<path class="st0" d="M423.8,10h22.9v109.5h-22.9V10z"/>
			<path class="st0" d="M506.3,121.3c-6,0-11.6-1-16.7-2.9c-5.1-2-9.6-4.9-13.4-8.6c-3.7-3.7-6.6-8.1-8.8-13.2
				c-2-5.1-3.2-10.7-3.2-16.9v-0.3c0-5.8,1-11.1,2.9-16.2s4.7-9.6,8.2-13.4c3.5-3.8,7.7-6.8,12.5-8.9s10.2-3.3,16.1-3.3
				c6.6,0,12.5,1.2,17.4,3.6s8.9,5.6,12.3,9.7c3.2,4.1,5.6,8.7,7.2,13.9c1.5,5.2,2.3,10.7,2.3,16.5c0,0.9,0,1.8-0.1,2.8
				c0,1-0.1,2-0.3,3.2h-56c1.2,5.2,3.3,9.1,6.8,11.8c3.5,2.7,7.7,4,12.8,4c3.8,0,7.2-0.6,10.2-1.9c2.9-1.3,6.1-3.5,9.3-6.3l13,11.5
				c-3.8,4.7-8.4,8.4-13.8,11C519.9,120,513.5,121.3,506.3,121.3z M521,73c-0.6-5.1-2.6-9.2-5.4-12.4c-2.9-3.2-6.8-4.7-11.5-4.7
				c-4.9,0-8.7,1.5-11.6,4.6c-2.9,3.1-4.9,7.3-5.8,12.4H521V73z"/>
			<path class="st0" d="M598.2,121.3c-6,0-11.6-1.2-16.7-3.3c-5.1-2.2-9.6-5.2-13.3-8.9c-3.7-3.7-6.6-8.2-8.7-13.2
				c-2-5.1-3.2-10.5-3.2-16.1v-0.3c0-5.8,1-11.1,3.2-16.2c2-5.1,5-9.6,8.7-13.4s8.2-6.8,13.3-8.9c5.1-2.2,10.9-3.3,17-3.3
				c7.5,0,13.9,1.2,18.9,3.6c5,2.4,9.5,5.8,13.2,10l-13.9,15c-2.6-2.7-5.2-4.9-8.1-6.5c-2.8-1.7-6.1-2.4-10.2-2.4
				c-2.9,0-5.5,0.6-7.9,1.8c-2.3,1.2-4.3,2.7-6.1,4.7c-1.8,2-3.1,4.3-4.1,7c-0.9,2.7-1.4,5.5-1.4,8.4v0.3c0,3.1,0.5,6,1.4,8.7
				c0.9,2.7,2.3,5.1,4.1,7c1.8,2,4,3.6,6.4,4.7c2.6,1.2,5.2,1.8,8.4,1.8c3.8,0,7.2-0.8,10-2.3c2.8-1.5,5.6-3.6,8.4-6.3l13.4,13.5
				c-4,4.3-8.3,7.8-13.4,10.6C612.6,119.9,606.1,121.3,598.2,121.3z"/>
			<path class="st0" d="M673.1,120.9c-3.5,0-6.6-0.4-9.6-1.2c-2.8-0.8-5.4-2-7.4-4c-2-1.9-3.7-4.3-4.9-7.4
				c-1.2-3.1-1.8-6.9-1.8-11.6V58.7h-9.6V39.1h9.6V18.5h22.9v20.6h18.9v19.6h-18.9v34.5c0,5.2,2.4,7.8,7.4,7.8c4,0,7.8-1,11.2-2.9
				v18.1c-2.4,1.4-5.1,2.6-7.9,3.3C680.2,120.4,676.9,120.9,673.1,120.9z"/>
			<path class="st0" d="M708.2,39h22.9v16.2c2.3-5.5,5.5-10,9.5-13.2c4-3.3,9.5-4.9,16.2-4.5v23.9h-1.2c-7.7,0-13.5,2.3-17.9,6.9
				c-4.3,4.6-6.5,11.8-6.5,21.5v29.8h-22.9V39H708.2z"/>
			<g>
				<g>
					<path class="st0" d="M793.7,121c-3.8,0-7.4-0.5-10.7-1.5c-3.3-1-6.3-2.7-8.8-4.7c-2.6-2-4.5-4.7-5.9-7.7
						c-1.4-3.1-2.2-6.5-2.2-10.6v-0.3c0-4.3,0.8-8.2,2.4-11.4c1.7-3.2,3.8-5.9,6.6-7.9c2.8-2,6.3-3.7,10.2-4.7c4-1,8.3-1.5,13.2-1.5
						c4.1,0,7.7,0.3,10.7,0.9s6,1.4,8.9,2.4v-1.4c0-4.9-1.4-8.4-4.3-11c-2.9-2.6-7.2-3.7-12.9-3.7c-4.3,0-8.3,0.4-11.6,1.2
						c-3.3,0.8-6.9,1.8-10.6,3.2L773,44.9c4.3-1.9,8.9-3.5,13.8-4.6c4.9-1.2,10.6-1.8,17.4-1.8c6.3,0,11.6,0.8,16.1,2.3
						c4.5,1.5,8.2,3.8,11,6.6c2.9,2.9,5.2,6.6,6.6,11c1.4,4.3,2,9.2,2,14.7v46.7h-22.1v-8.7c-2.8,3.1-6.1,5.6-10.1,7.4
						C804.1,120,799.3,121,793.7,121z M800.6,105.2c5.4,0,9.7-1.3,13-4c3.2-2.6,4.9-6,4.9-10.2v-4.1c-2-0.9-4.2-1.7-6.6-2.2
						c-2.4-0.5-5.1-0.8-7.9-0.8c-4.9,0-8.8,0.9-11.5,2.8c-2.8,1.9-4.2,4.6-4.2,8.3v0.3c0,3.1,1.2,5.5,3.5,7.2
						C794,104.4,796.9,105.2,800.6,105.2z"/>
				</g>
			</g>
		</g>
	</g>
	<g>
		<rect x="875.9" class="st0" width="124.1" height="124.1"/>
		<rect x="889.1" y="12" class="st1" width="70.8" height="5"/>
		<polygon class="st2" points="945.6,124.1 945.6,153.1 1000,124.1 		"/>
		<polygon class="st3" points="945.6,124.1 1000,124.1 945.6,131.6 		"/>
		<rect x="889.1" y="27.6" class="st1" width="53" height="5"/>
		<rect x="889.1" y="43.3" class="st1" width="59.2" height="5"/>
		<rect x="889.1" y="58.9" class="st1" width="34.5" height="5"/>
		<g>
			<g>
				<path class="st1" d="M969.5,77.6v-9.1h-8.8v-9.6H950v9.6h-4.5v9.1h4.5v17.8c0,2.2,0.3,4,0.8,5.4c0.5,1.4,1.3,2.6,2.2,3.5
					c1,0.9,2,1.5,3.5,1.9c1.3,0.4,2.8,0.5,4.5,0.5c1.8,0,3.3-0.3,4.7-0.6c1.3-0.4,2.6-0.9,3.7-1.5v-8.6c-1.7,0.9-3.5,1.4-5.2,1.4
					c-2.3,0-3.5-1.2-3.5-3.6V77.6L969.5,77.6L969.5,77.6z"/>
			</g>
		</g>
	</g>
</g>
</svg>
