<?xml version="1.0" encoding="UTF-8" standalone="no"?>
<!-- Generator: Adobe Illustrator 22.0.1, SVG Export Plug-In . SVG Version: 6.00 Build 0)  -->

<svg
   xmlns:dc="http://purl.org/dc/elements/1.1/"
   xmlns:cc="http://creativecommons.org/ns#"
   xmlns:rdf="http://www.w3.org/1999/02/22-rdf-syntax-ns#"
   xmlns:svg="http://www.w3.org/2000/svg"
   xmlns="http://www.w3.org/2000/svg"
   xmlns:sodipodi="http://sodipodi.sourceforge.net/DTD/sodipodi-0.dtd"
   xmlns:inkscape="http://www.inkscape.org/namespaces/inkscape"
   version="1.1"
   id="Layer_1"
   x="0px"
   y="0px"
   viewBox="0 0 1000 1000"
   xml:space="preserve"
   inkscape:version="0.91 r13725"
   sodipodi:docname="icon.svg"
   width="1000"
   height="1000"><metadata
     id="metadata31"><rdf:RDF><cc:Work
         rdf:about=""><dc:format>image/svg+xml</dc:format><dc:type
           rdf:resource="http://purl.org/dc/dcmitype/StillImage" /><dc:title></dc:title></cc:Work></rdf:RDF></metadata><defs
     id="defs29" /><sodipodi:namedview
     pagecolor="#ffffff"
     bordercolor="#666666"
     borderopacity="1"
     objecttolerance="10"
     gridtolerance="10"
     guidetolerance="10"
     inkscape:pageopacity="0"
     inkscape:pageshadow="2"
     inkscape:window-width="1920"
     inkscape:window-height="1017"
     id="namedview27"
     showgrid="false"
     inkscape:zoom="0.236"
     inkscape:cx="404.79999"
     inkscape:cy="500"
     inkscape:window-x="-8"
     inkscape:window-y="-8"
     inkscape:window-maximized="1"
     inkscape:current-layer="Layer_1" /><style
     type="text/css"
     id="style3">
	.st0{fill:#2078D1;}
	.st1{fill:#FFFFFF;}
	.st2{fill:#87C43E;}
	.st3{fill:#6FA03C;}
</style><g
     id="g5"
     transform="translate(95.549994,0)"><rect
       x="-0.89999998"
       class="st0"
       width="810.70001"
       height="810.5"
       id="rect7"
       y="0"
       style="fill:#2078d1" /><rect
       x="85"
       y="78.199997"
       class="st1"
       width="462.5"
       height="32.799999"
       id="rect9"
       style="fill:#ffffff" /><polygon
       class="st2"
       points="453.7,1000 809.7,810.5 453.7,810.5 "
       id="polygon11"
       style="fill:#87c43e" /><polygon
       class="st3"
       points="809.7,810.5 453.7,859.8 453.7,810.5 "
       id="polygon13"
       style="fill:#6fa03c" /><rect
       x="85"
       y="180.60001"
       class="st1"
       width="346"
       height="32.799999"
       id="rect15"
       style="fill:#ffffff" /><rect
       x="85"
       y="282.79999"
       class="st1"
       width="386.60001"
       height="32.799999"
       id="rect17"
       style="fill:#ffffff" /><rect
       x="85"
       y="385"
       class="st1"
       width="225.7"
       height="32.799999"
       id="rect19"
       style="fill:#ffffff" /><g
       id="g21"><g
         id="g23"><path
           class="st1"
           d="m 609.6,506.8 0,-59.3 -57.4,0 0,-62.5 -69.3,0 0,62.5 -29.2,0 0,59.3 29.2,0 0,115.9 c 0,14.2 1.8,26 5.2,35.3 3.6,9.3 8.5,16.9 14.5,22.6 6.2,5.8 13.6,9.8 22.4,12.2 8.8,2.2 18.2,3.4 28.9,3.4 11.4,0 21.7,-1.3 30.6,-3.9 8.8,-2.5 16.9,-5.9 24.2,-10.2 l 0,-55.8 c -10.7,6.1 -22.1,9.2 -34.3,9.2 -14.8,0 -22.3,-7.9 -22.3,-23.7 l 0,-105 57.5,0 0,0 z"
           id="path25"
           inkscape:connector-curvature="0"
           style="fill:#ffffff" /></g></g></g></svg>