<?xml version="1.0" encoding="utf-8"?>
<!-- Generator: Adobe Illustrator 22.0.1, SVG Export Plug-In . SVG Version: 6.00 Build 0)  -->
<svg version="1.1" id="Layer_1" xmlns="http://www.w3.org/2000/svg" xmlns:xlink="http://www.w3.org/1999/xlink" x="0px" y="0px"
	 viewBox="0 0 809.6 1000" style="enable-background:new 0 0 809.6 1000;" xml:space="preserve">
<style type="text/css">
	.st0{fill:#2078D1;}
	.st1{fill:#FFFFFF;}
	.st2{fill:#87C43E;}
	.st3{fill:#6FA03C;}
</style>
<g>
	<rect x="-0.9" class="st0" width="810.7" height="810.5"/>
	<rect x="85" y="78.2" class="st1" width="462.5" height="32.8"/>
	<polygon class="st2" points="453.7,810.5 453.7,1000 809.7,810.5 	"/>
	<polygon class="st3" points="453.7,810.5 809.7,810.5 453.7,859.8 	"/>
	<rect x="85" y="180.6" class="st1" width="346" height="32.8"/>
	<rect x="85" y="282.8" class="st1" width="386.6" height="32.8"/>
	<rect x="85" y="385" class="st1" width="225.7" height="32.8"/>
	<g>
		<g>
			<path class="st1" d="M609.6,506.8v-59.3h-57.4V385h-69.3v62.5h-29.2v59.3h29.2v115.9c0,14.2,1.8,26,5.2,35.3
				c3.6,9.3,8.5,16.9,14.5,22.6c6.2,5.8,13.6,9.8,22.4,12.2c8.8,2.2,18.2,3.4,28.9,3.4c11.4,0,21.7-1.3,30.6-3.9
				c8.8-2.5,16.9-5.9,24.2-10.2v-55.8c-10.7,6.1-22.1,9.2-34.3,9.2c-14.8,0-22.3-7.9-22.3-23.7V506.8L609.6,506.8L609.6,506.8z"/>
		</g>
	</g>
</g>
</svg>
