<?xml version="1.0" encoding="utf-8"?>
<!-- Generator: Adobe Illustrator 22.0.1, SVG Export Plug-In . SVG Version: 6.00 Build 0)  -->
<svg version="1.1" id="Layer_1" xmlns="http://www.w3.org/2000/svg" xmlns:xlink="http://www.w3.org/1999/xlink" x="0px" y="0px"
	 viewBox="0 0 1000 153.4" style="enable-background:new 0 0 1000 153.4;" xml:space="preserve">
<g>
	<g>
		<g>
			<path d="M0,14.4v21.3h32v83.7h23.1V35.8h32V14.4C87,14.4,0,14.4,0,14.4z"/>
			<path d="M134.6,42.1c-4,3.3-7.2,7.7-9.5,13.2V39h-22.9v80.5h22.9V89.7c0-9.7,2.2-16.9,6.5-21.5c4.3-4.6,10.4-6.9,17.9-6.9h1.2
				V37.5C144,37.2,138.5,38.7,134.6,42.1z"/>
			<path d="M232.2,58.2c-1.4-4.3-3.6-8.1-6.6-11c-2.9-2.9-6.6-5.1-11-6.6c-4.5-1.5-9.8-2.3-16.1-2.3c-6.8,0-12.7,0.6-17.4,1.8
				c-4.9,1.2-9.5,2.8-13.8,4.6l5.8,17.4c3.7-1.4,7.3-2.4,10.6-3.2c3.3-0.8,7.3-1.2,11.6-1.2c5.8,0,10,1.3,12.9,3.7
				c2.9,2.6,4.3,6.1,4.3,11v1.3c-2.9-1-5.9-1.8-8.9-2.4c-3.1-0.6-6.6-0.9-10.7-0.9c-4.9,0-9.2,0.5-13.2,1.5s-7.4,2.7-10.2,4.7
				c-2.8,2-5.1,4.7-6.6,7.9c-1.7,3.2-2.4,7-2.4,11.4v0.3c0,4,0.8,7.5,2.2,10.6c1.4,3.1,3.5,5.6,5.9,7.7c2.6,2,5.4,3.7,8.8,4.7
				c3.3,1,6.9,1.5,10.7,1.5c5.6,0,10.4-0.9,14.3-2.8c4-1.9,7.3-4.3,10.1-7.4v8.7h22.1V72.5C234.3,67.4,233.5,62.5,232.2,58.2z
				 M212.7,91.1c0,4.2-1.7,7.7-4.9,10.2s-7.5,3.8-13,3.8c-3.7,0-6.8-0.9-9.1-2.6c-2.3-1.7-3.5-4.1-3.5-7.2v-0.3
				c0-3.6,1.4-6.4,4.2-8.3c2.8-1.9,6.6-2.8,11.5-2.8c2.8,0,5.5,0.3,7.9,0.8c2.4,0.5,4.7,1.3,6.6,2.2v4.1H212.7z"/>
			<path d="M320.6,45.5c-4.7-5.4-11.5-7.9-20.2-7.9c-2.9,0-5.5,0.4-7.8,1c-2.3,0.6-4.3,1.7-6.3,2.9s-3.6,2.6-5.1,4.2
				c-1.5,1.5-2.9,3.2-4.2,4.9V39.1h-22.9v80.5H277V74.9c0-5.4,1.3-9.5,3.8-12.3c2.6-2.7,6-4.1,10.5-4.1c4.3,0,7.8,1.4,10.2,4.1
				c2.4,2.7,3.6,6.8,3.6,12.3v44.7H328V67.5C327.6,58.2,325.3,50.7,320.6,45.5z"/>
			<path d="M404.1,85.3c-1.5-2.6-3.5-4.9-5.8-6.6s-4.9-3.3-7.8-4.6c-2.9-1.3-5.8-2.3-8.6-3.2c-2.2-0.6-4.3-1.4-6.3-2
				s-3.7-1.4-5.2-2.2c-1.5-0.8-2.7-1.5-3.6-2.4c-0.9-0.9-1.4-1.8-1.4-2.9V61c0-1.7,0.6-2.9,2-4s3.5-1.5,6.3-1.5
				c2.9,0,6.3,0.6,10.1,2c3.8,1.4,7.7,3.2,11.8,5.5l8.7-15.7c-4.3-2.9-9.2-5.1-14.4-6.8c-5.2-1.7-10.5-2.4-15.6-2.4
				c-4.1,0-7.9,0.5-11.5,1.7c-3.6,1.2-6.6,2.7-9.3,5c-2.7,2.2-4.7,4.9-6.3,8.1c-1.5,3.2-2.3,6.8-2.3,10.9v0.3c0,3.8,0.8,7.2,2.2,10
				c1.4,2.7,3.3,5,5.6,6.8s4.9,3.3,7.7,4.5s5.6,2.2,8.4,2.9c2.2,0.6,4.3,1.4,6.3,1.9c2,0.6,3.8,1.3,5.4,1.9c1.5,0.6,2.8,1.4,3.7,2.3
				c0.9,0.9,1.4,1.9,1.4,3.2v0.3c0,1.8-0.8,3.3-2.3,4.3c-1.5,1.2-4,1.7-7.3,1.7c-3.8,0-7.9-0.8-12.3-2.4c-4.3-1.7-8.7-4-13.2-7.2
				l-9.7,15.1c5.4,4.2,11.1,7.3,17,9.2c6,1.9,11.8,2.9,17.5,2.9c4.3,0,8.3-0.5,12.1-1.5c3.7-1,7-2.7,9.8-4.7c2.8-2,5-4.7,6.5-8.1
				c1.5-3.2,2.3-7.2,2.3-11.6v-0.3C406.4,91,405.7,87.8,404.1,85.3z"/>
			<path d="M423.8,10v109.5h22.9V10C446.7,10,423.8,10,423.8,10z"/>
			<path d="M540.9,64.8c-1.5-5.2-4-10-7.2-13.9c-3.3-4.1-7.3-7.3-12.3-9.7c-4.9-2.4-10.7-3.6-17.4-3.6c-5.9,0-11.2,1.2-16.1,3.3
				c-4.9,2.2-9.1,5.2-12.5,8.9c-3.5,3.8-6.3,8.3-8.2,13.4s-2.9,10.5-2.9,16.2v0.3c0,6.3,1,11.9,3.2,16.9c2.2,5.1,5,9.5,8.8,13.2
				c3.7,3.7,8.2,6.5,13.4,8.6c5.1,2,10.7,2.9,16.7,2.9c7.3,0,13.7-1.3,19-4c5.4-2.7,10-6.4,13.8-11l-13-11.5c-3.2,2.9-6.3,5-9.3,6.3
				c-2.9,1.3-6.4,1.9-10.2,1.9c-5.1,0-9.3-1.3-12.8-4c-3.5-2.7-5.8-6.5-6.8-11.8h56c0.1-1.2,0.1-2.2,0.3-3.2c0-1,0.1-1.9,0.1-2.8
				C543.2,75.5,542.4,70,540.9,64.8z M486.6,73c0.9-5.2,2.8-9.3,5.8-12.5c2.9-3.2,6.8-4.6,11.6-4.6c4.9,0,8.7,1.5,11.5,4.7
				c2.9,3.2,4.7,7.3,5.4,12.4L486.6,73L486.6,73z"/>
			<path d="M617.6,93.1c-2.8,2.6-5.6,4.7-8.4,6.3c-2.8,1.5-6.1,2.3-10,2.3c-3.1,0-5.9-0.6-8.4-1.8c-2.6-1.2-4.6-2.7-6.5-4.7
				c-1.8-2-3.2-4.3-4.1-7s-1.4-5.6-1.4-8.7v-0.3c0-3.1,0.5-5.9,1.4-8.4c1-2.7,2.3-5,4.1-7c1.8-2,3.8-3.6,6.1-4.7s5-1.7,7.9-1.7
				c4.1,0,7.5,0.8,10.2,2.4c2.8,1.7,5.5,3.7,8.1,6.5l13.9-15.1c-3.8-4.2-8.2-7.5-13.2-10c-5-2.4-11.2-3.6-18.9-3.6
				c-6.3,0-11.9,1.2-17,3.3c-5.1,2.2-9.6,5.2-13.3,8.9c-3.7,3.8-6.6,8.3-8.7,13.4c-2,5.1-3.2,10.5-3.2,16.2v0.3
				c0,5.8,1,11.1,3.2,16.1c2,5.1,5,9.5,8.7,13.2c3.7,3.7,8.2,6.8,13.3,8.9s10.7,3.3,16.7,3.3c8.1,0,14.4-1.4,19.6-4.1
				c5-2.7,9.5-6.3,13.4-10.6L617.6,93.1z"/>
			<path d="M691.3,58.5V39h-18.9V18.4h-22.8V39h-9.6v19.6h9.6v38.1c0,4.7,0.6,8.6,1.7,11.6c1.2,3.1,2.8,5.5,4.9,7.4
				c2,1.9,4.5,3.2,7.4,4c2.8,0.8,6,1.2,9.6,1.2c3.8,0,7.2-0.4,10.1-1.3c2.9-0.9,5.5-1.9,7.9-3.3V97.9c-3.6,2-7.3,2.9-11.2,2.9
				c-4.9,0-7.4-2.6-7.4-7.8V58.5H691.3z"/>
			<path d="M740.4,42.1c-4,3.3-7.2,7.7-9.5,13.2V39h-22.9v80.5H731V89.7c0-9.7,2.2-16.9,6.5-21.5s10.4-6.9,17.9-6.9h1.2V37.5
				C749.9,37.2,744.4,38.7,740.4,42.1z"/>
			<g>
				<g>
					<path d="M838.1,58.2c-1.4-4.3-3.6-8.1-6.6-11c-2.9-2.9-6.5-5.1-11-6.6c-4.5-1.5-9.8-2.3-16.1-2.3c-6.8,0-12.7,0.6-17.4,1.8
						c-4.9,1.2-9.5,2.8-13.8,4.6l5.8,17.4c3.7-1.4,7.3-2.4,10.6-3.2c3.3-0.8,7.3-1.2,11.6-1.2c5.8,0,10,1.3,12.9,3.7
						c2.9,2.6,4.3,6.1,4.3,11v1.3c-2.9-1-5.9-1.8-8.9-2.4s-6.6-0.9-10.7-0.9c-4.9,0-9.2,0.5-13.2,1.5c-4,1-7.4,2.7-10.2,4.7
						c-2.8,2-5.1,4.7-6.6,7.9c-1.7,3.2-2.4,7-2.4,11.4v0.3c0,4,0.8,7.5,2.2,10.6c1.4,3.1,3.5,5.6,5.9,7.7c2.6,2,5.4,3.7,8.8,4.7
						c3.3,1,6.9,1.5,10.7,1.5c5.6,0,10.4-0.9,14.3-2.8c4-1.9,7.3-4.3,10.1-7.4v8.7h22.1V72.5C840.1,67.4,839.3,62.5,838.1,58.2z
						 M818.5,91.1c0,4.2-1.7,7.7-4.9,10.2s-7.5,3.8-13,3.8c-3.7,0-6.8-0.9-9.1-2.6c-2.3-1.7-3.5-4.1-3.5-7.2v-0.3
						c0-3.6,1.4-6.4,4.2-8.3c2.8-1.9,6.6-2.8,11.5-2.8c2.8,0,5.5,0.3,7.9,0.8c2.4,0.5,4.7,1.3,6.6,2.2v4.1H818.5z"/>
				</g>
			</g>
		</g>
	</g>
	<g>
		<path d="M875.9,0v124.1H1000V0H875.9z M889.1,12h70.8v5h-70.8V12z M889.1,27.6h53v5h-53V27.6z M889.1,43.3h59.2v5h-59.2V43.3z
			 M923.6,64h-34.5v-5h34.5V64z M969.5,77.6h-8.8v16.1c0,2.4,1.2,3.6,3.5,3.6c1.9,0,3.6-0.5,5.2-1.4v8.6c-1.2,0.6-2.4,1.2-3.7,1.5
			c-1.4,0.4-2.9,0.6-4.7,0.6c-1.7,0-3.1-0.1-4.5-0.5c-1.3-0.4-2.4-1-3.5-1.8c-0.9-0.9-1.7-2-2.2-3.5c-0.5-1.4-0.8-3.2-0.8-5.4V77.7
			h-4.5v-9.1h4.5v-9.6h10.6v9.6h8.8L969.5,77.6L969.5,77.6z"/>
		<polygon points="945.6,124.1 945.6,153.1 1000,124.1 		"/>
		<polygon points="945.6,124.1 1000,124.1 945.6,131.7 		"/>
	</g>
</g>
</svg>
