<?xml version="1.0" encoding="utf-8"?>
<!-- Generator: Adobe Illustrator 22.0.1, SVG Export Plug-In . SVG Version: 6.00 Build 0)  -->
<svg version="1.1" id="Layer_1" xmlns="http://www.w3.org/2000/svg" xmlns:xlink="http://www.w3.org/1999/xlink" x="0px" y="0px"
	 viewBox="0 0 1000 152.9" style="enable-background:new 0 0 1000 152.9;" xml:space="preserve">
<style type="text/css">
	.st0{fill:#2078D1;}
	.st1{fill:#FFFFFF;}
	.st2{fill:#87C43E;}
	.st3{fill:#6FA03C;}
</style>
<g>
	<g>
		<g>
			<path class="st0" d="M193.4,35.7h-31.9V14.4h86.9v21.3h-31.9v83.6h-23.1V35.7z"/>
			<path class="st0" d="M263.7,38.9h22.8v16.2c2.3-5.5,5.5-10,9.4-13.1c4-3.3,9.4-4.8,16.2-4.5v23.9h-1.1c-7.7,0-13.5,2.3-17.9,6.9
				c-4.3,4.6-6.5,11.7-6.5,21.4v29.7h-22.8V38.9H263.7z"/>
			<path class="st0" d="M349.1,120.8c-3.8,0-7.4-0.5-10.7-1.5c-3.3-1-6.3-2.7-8.8-4.7c-2.6-2-4.5-4.7-5.9-7.7
				c-1.4-3.1-2.2-6.5-2.2-10.6v-0.3c0-4.3,0.8-8.2,2.4-11.4c1.7-3.2,3.8-5.9,6.6-7.9c2.8-2,6.3-3.7,10.2-4.7c4-1,8.3-1.5,13.1-1.5
				c4.1,0,7.7,0.3,10.7,0.9s6,1.4,8.9,2.4v-1.4c0-4.8-1.4-8.4-4.3-11s-7.1-3.7-12.9-3.7c-4.3,0-8.3,0.4-11.6,1.1
				c-3.3,0.8-6.9,1.8-10.6,3.2l-5.7-17.4c4.3-1.9,8.9-3.4,13.8-4.6c4.8-1.1,10.6-1.8,17.4-1.8c6.3,0,11.6,0.8,16.1,2.3
				c4.5,1.5,8.2,3.8,11,6.6c2.9,2.9,5.2,6.6,6.6,11c1.4,4.3,2,9.2,2,14.7v46.6h-22.1v-8.7c-2.8,3.1-6.1,5.6-10.1,7.4
				C359.4,119.8,354.7,120.8,349.1,120.8z M356,105c5.4,0,9.7-1.3,13-4c3.2-2.6,4.8-6,4.8-10.2v-4.1c-2-0.9-4.2-1.7-6.6-2.2
				c-2.4-0.5-5.1-0.8-7.9-0.8c-4.8,0-8.8,0.9-11.5,2.8c-2.8,1.9-4.2,4.6-4.2,8.3v0.3c0,3.1,1.1,5.5,3.4,7.1
				C349.3,104.2,352.3,105,356,105z"/>
			<path class="st0" d="M415,38.9h22.8v11.5c1.3-1.7,2.7-3.3,4.2-4.8c1.5-1.5,3.3-2.9,5.2-4.2c1.9-1.1,4-2.2,6.3-2.8
				c2.3-0.8,4.8-1,7.8-1c8.7,0,15.4,2.7,20.2,7.9c4.7,5.4,7.1,12.6,7.1,21.8v52.1h-22.8V74.6c0-5.4-1.1-9.4-3.6-12.1
				c-2.4-2.7-5.7-4.1-10.2-4.1c-4.3,0-7.9,1.4-10.5,4.1c-2.6,2.7-3.8,6.8-3.8,12.1v44.7h-22.8V38.9H415z"/>
			<path class="st0" d="M536.5,120.8c-5.7,0-11.5-1-17.5-2.9c-6-1.9-11.6-5-17-9.2l9.7-14.9c4.3,3.2,8.8,5.6,13.1,7.1
				c4.3,1.7,8.4,2.4,12.2,2.4c3.3,0,5.7-0.5,7.3-1.7c1.5-1.1,2.3-2.6,2.3-4.3v-0.3c0-1.1-0.5-2.3-1.4-3.2c-0.9-0.9-2.2-1.7-3.7-2.3
				c-1.5-0.6-3.3-1.3-5.4-1.9c-2-0.6-4.1-1.3-6.3-1.9c-2.8-0.8-5.6-1.8-8.4-2.9c-2.8-1.1-5.4-2.7-7.7-4.5c-2.3-1.8-4.2-4.1-5.6-6.8
				s-2.2-6-2.2-10v-0.3c0-4.1,0.8-7.7,2.3-10.8c1.5-3.2,3.7-5.9,6.3-8c2.7-2.2,5.7-3.8,9.3-5c3.6-1.1,7.4-1.7,11.5-1.7
				c5.1,0,10.2,0.8,15.6,2.4c5.4,1.7,10.1,4,14.4,6.8l-8.7,15.7c-4-2.3-7.9-4.1-11.7-5.5c-3.8-1.4-7.1-2-10.1-2
				c-2.8,0-4.8,0.5-6.3,1.5s-2,2.4-2,4V61c0,1.1,0.5,2,1.4,2.9c0.9,0.9,2,1.7,3.6,2.4c1.5,0.8,3.2,1.5,5.2,2.2
				c1.9,0.6,4.1,1.4,6.3,2c2.8,0.9,5.6,1.9,8.5,3.2c2.9,1.3,5.5,2.8,7.8,4.6c2.3,1.8,4.2,4,5.7,6.6c1.5,2.6,2.3,5.7,2.3,9.4v0.3
				c0,4.5-0.8,8.4-2.3,11.6c-1.5,3.2-3.7,5.9-6.5,8c-2.8,2-6.1,3.7-9.8,4.7C544.8,120.3,540.8,120.8,536.5,120.8z"/>
			<path class="st0" d="M584.6,10h22.8v109.3h-22.8V10z"/>
			<path class="st0" d="M666.9,121.1c-6,0-11.6-1-16.7-2.9c-5.1-2-9.6-4.8-13.4-8.5c-3.7-3.7-6.6-8-8.8-13.1
				c-2-5.1-3.2-10.7-3.2-16.8v-0.3c0-5.7,1-11.1,2.9-16.2c1.9-5.1,4.7-9.6,8.2-13.4c3.4-3.8,7.7-6.8,12.5-8.9s10.2-3.3,16.1-3.3
				c6.6,0,12.5,1.1,17.4,3.6s8.9,5.6,12.2,9.7c3.2,4.1,5.6,8.7,7.1,13.9c1.5,5.2,2.3,10.7,2.3,16.5c0,0.9,0,1.8-0.1,2.8
				c0,1-0.1,2-0.3,3.2h-55.9c1.1,5.2,3.3,9.1,6.8,11.7c3.4,2.7,7.7,4,12.8,4c3.8,0,7.1-0.6,10.2-1.9c2.9-1.3,6.1-3.4,9.3-6.3
				l13,11.5c-3.8,4.7-8.4,8.4-13.8,11C680.5,119.8,674.2,121.1,666.9,121.1z M681.6,72.9c-0.6-5.1-2.6-9.2-5.4-12.4
				c-2.9-3.2-6.8-4.7-11.5-4.7c-4.8,0-8.7,1.5-11.6,4.6c-2.9,3.1-4.8,7.3-5.7,12.4h34.2V72.9z"/>
			<path class="st0" d="M758.6,121.1c-6,0-11.6-1.1-16.7-3.3c-5.1-2.2-9.6-5.2-13.3-8.9c-3.7-3.7-6.6-8.2-8.7-13.1
				c-2-5.1-3.2-10.5-3.2-16.1v-0.3c0-5.7,1-11.1,3.2-16.2c2-5.1,5-9.6,8.7-13.4c3.7-3.8,8.2-6.8,13.3-8.9s10.8-3.3,17-3.3
				c7.5,0,13.9,1.1,18.9,3.6c5,2.4,9.4,5.7,13.1,10L777,66c-2.6-2.7-5.2-4.8-8-6.5c-2.8-1.7-6.1-2.4-10.2-2.4
				c-2.9,0-5.5,0.6-7.9,1.8c-2.3,1.1-4.3,2.7-6.1,4.7c-1.8,2-3.1,4.3-4.1,7c-0.9,2.7-1.4,5.5-1.4,8.4v0.3c0,3.1,0.5,6,1.4,8.7
				c0.9,2.7,2.3,5.1,4.1,7c1.8,2,4,3.6,6.4,4.7c2.6,1.1,5.2,1.8,8.4,1.8c3.8,0,7.1-0.8,10-2.3c2.8-1.5,5.6-3.6,8.4-6.3l13.4,13.5
				c-4,4.3-8.3,7.8-13.4,10.6C773,119.7,766.5,121.1,758.6,121.1z"/>
			<path class="st0" d="M833.4,120.7c-3.4,0-6.6-0.4-9.6-1.1c-2.8-0.8-5.4-2-7.4-4s-3.7-4.3-4.8-7.4c-1.1-3.1-1.8-6.9-1.8-11.6v-38
				h-9.6V39.1h9.6V18.5h22.8v20.5h18.9v19.5h-18.9V93c0,5.2,2.4,7.8,7.4,7.8c4,0,7.8-1,11.2-2.9V116c-2.4,1.4-5.1,2.6-7.9,3.3
				C840.5,120.2,837.2,120.7,833.4,120.7z"/>
			<path class="st0" d="M868.5,38.9h22.8v16.2c2.3-5.5,5.5-10,9.4-13.1c4-3.3,9.4-4.8,16.2-4.5v23.9h-1.1c-7.7,0-13.5,2.3-17.9,6.9
				c-4.3,4.6-6.5,11.7-6.5,21.4v29.7h-22.8V38.9H868.5z"/>
			<g>
				<g>
					<path class="st0" d="M953.8,120.8c-3.8,0-7.4-0.5-10.7-1.5c-3.3-1-6.3-2.7-8.8-4.7c-2.6-2-4.5-4.7-5.9-7.7
						c-1.4-3.1-2.2-6.5-2.2-10.6v-0.3c0-4.3,0.8-8.2,2.4-11.4c1.7-3.2,3.8-5.9,6.6-7.9c2.8-2,6.3-3.7,10.2-4.7s8.3-1.5,13.1-1.5
						c4.1,0,7.7,0.3,10.7,0.9s6,1.4,8.9,2.4v-1.4c0-4.8-1.4-8.4-4.3-11c-2.9-2.6-7.1-3.7-12.9-3.7c-4.3,0-8.3,0.4-11.6,1.1
						c-3.3,0.8-6.9,1.8-10.6,3.2l-5.7-17.4c4.3-1.9,8.9-3.4,13.8-4.6c4.8-1.1,10.6-1.8,17.4-1.8c6.3,0,11.6,0.8,16.1,2.3
						c4.5,1.5,8.2,3.8,11,6.6c2.9,2.9,5.2,6.6,6.6,11c1.4,4.3,2,9.2,2,14.7v46.6h-22.1v-8.7c-2.8,3.1-6.1,5.6-10.1,7.4
						C964.2,119.8,959.4,120.8,953.8,120.8z M960.7,105c5.4,0,9.7-1.3,13-4c3.2-2.6,4.8-6,4.8-10.2v-4.1c-2-0.9-4.2-1.7-6.6-2.2
						c-2.4-0.5-5.1-0.8-7.9-0.8c-4.8,0-8.8,0.9-11.5,2.8c-2.8,1.9-4.2,4.6-4.2,8.3v0.3c0,3.1,1.1,5.5,3.4,7.1
						C954.1,104.2,957,105,960.7,105z"/>
				</g>
			</g>
		</g>
	</g>
	<g>
		<rect x="-0.1" y="0" class="st0" width="123.9" height="123.9"/>
		<rect x="13" y="12" class="st1" width="70.7" height="5"/>
		<polygon class="st2" points="69.4,123.9 69.4,152.9 123.8,123.9 		"/>
		<polygon class="st3" points="69.4,123.9 123.8,123.9 69.4,131.4 		"/>
		<rect x="13" y="27.6" class="st1" width="52.9" height="5"/>
		<rect x="13" y="43.3" class="st1" width="59.1" height="5"/>
		<rect x="13" y="58.8" class="st1" width="34.4" height="5"/>
		<g>
			<g>
				<path class="st1" d="M93.3,77.5v-9.1h-8.8v-9.6H73.9v9.6h-4.5v9.1h4.5v17.7c0,2.2,0.3,4,0.8,5.4c0.5,1.4,1.3,2.6,2.2,3.4
					c1,0.9,2,1.5,3.4,1.9c1.3,0.4,2.8,0.5,4.5,0.5c1.8,0,3.3-0.3,4.7-0.6c1.3-0.4,2.6-0.9,3.7-1.5v-8.5c-1.7,0.9-3.4,1.4-5.2,1.4
					c-2.3,0-3.4-1.1-3.4-3.6V77.5L93.3,77.5L93.3,77.5z"/>
			</g>
		</g>
	</g>
</g>
</svg>
